ply
format ascii 1.0
comment Created by Blender 2.69 (sub 0) - www.blender.org, source file: 'circle-stick.blend'
element vertex 306
property float x
property float y
property float z
property float nx
property float ny
property float nz
element face 92
property list uchar uint vertex_indices
end_header
-0.000000 -0.428944 3.636576 0.098020 0.995184 0.000002
-0.000000 -0.428944 3.502142 0.098020 0.995184 0.000002
-0.083684 -0.420702 3.502142 0.098020 0.995184 0.000002
-0.083685 -0.420702 3.636576 0.098020 0.995184 0.000002
-0.083685 -0.420702 3.636576 0.290295 0.956937 0.000002
-0.083684 -0.420702 3.502142 0.290295 0.956937 0.000002
-0.164149 -0.396292 3.502141 0.290295 0.956937 0.000002
-0.164149 -0.396292 3.636577 0.290295 0.956937 0.000002
-0.164149 -0.396292 3.636577 0.471382 0.881929 0.000000
-0.164149 -0.396292 3.502141 0.471382 0.881929 0.000000
-0.238307 -0.356656 3.502143 0.471382 0.881929 0.000000
-0.238307 -0.356656 3.636575 0.471382 0.881929 0.000000
-0.238307 -0.356656 3.636575 0.634397 0.773008 0.000002
-0.238307 -0.356656 3.502143 0.634397 0.773008 0.000002
-0.303311 -0.303308 3.502142 0.634397 0.773008 0.000002
-0.303311 -0.303308 3.636576 0.634397 0.773008 0.000002
-0.303311 -0.303308 3.636576 0.773017 0.634385 0.000002
-0.303311 -0.303308 3.502142 0.773017 0.634385 0.000002
-0.356654 -0.238309 3.502141 0.773017 0.634385 0.000002
-0.356654 -0.238309 3.636577 0.773017 0.634385 0.000002
-0.356654 -0.238309 3.636577 0.881915 0.471408 0.000000
-0.356654 -0.238309 3.502141 0.881915 0.471408 0.000000
-0.396293 -0.164151 3.502142 0.881915 0.471408 0.000000
-0.396293 -0.164152 3.636576 0.881915 0.471408 0.000000
-0.396293 -0.164152 3.636576 0.956940 0.290286 0.000001
-0.396293 -0.164151 3.502142 0.956940 0.290286 0.000001
-0.420703 -0.083680 3.502142 0.956940 0.290286 0.000001
-0.420703 -0.083681 3.636576 0.956940 0.290286 0.000001
-0.420703 -0.083681 3.636576 0.995187 0.097996 0.000002
-0.420703 -0.083680 3.502142 0.995187 0.097996 0.000002
-0.428943 0.000000 3.502141 0.995187 0.097996 0.000002
-0.428944 -0.000000 3.636578 0.995187 0.097996 0.000002
-0.428944 -0.000000 3.636578 0.995187 -0.097996 0.000002
-0.428943 0.000000 3.502141 0.995187 -0.097996 0.000002
-0.420703 0.083680 3.502143 0.995187 -0.097996 0.000002
-0.420703 0.083680 3.636576 0.995187 -0.097996 0.000002
-0.420703 0.083680 3.636576 0.956938 -0.290294 0.000001
-0.420703 0.083680 3.502143 0.956938 -0.290294 0.000001
-0.396293 0.164147 3.502141 0.956938 -0.290294 0.000001
-0.396294 0.164147 3.636577 0.956938 -0.290294 0.000001
-0.396294 0.164147 3.636577 0.881931 -0.471379 -0.000001
-0.396293 0.164147 3.502141 0.881931 -0.471379 -0.000001
-0.356655 0.238309 3.502144 0.881931 -0.471379 -0.000001
-0.356655 0.238308 3.636575 0.881931 -0.471379 -0.000001
-0.356655 0.238308 3.636575 0.772997 -0.634410 -0.000001
-0.356655 0.238309 3.502144 0.772997 -0.634410 -0.000001
-0.303308 0.303310 3.502141 0.772997 -0.634410 -0.000001
-0.303308 0.303309 3.636577 0.772997 -0.634410 -0.000001
-0.303308 0.303309 3.636577 0.634404 -0.773002 0.000001
-0.303308 0.303310 3.502141 0.634404 -0.773002 0.000001
-0.238308 0.356654 3.502143 0.634404 -0.773002 0.000001
-0.238309 0.356654 3.636575 0.634404 -0.773002 0.000001
-0.238309 0.356654 3.636575 0.471385 -0.881928 0.000000
-0.238308 0.356654 3.502143 0.471385 -0.881928 0.000000
-0.164149 0.396292 3.502141 0.471385 -0.881928 0.000000
-0.164150 0.396292 3.636577 0.471385 -0.881928 0.000000
-0.164150 0.396292 3.636577 0.290292 -0.956938 -0.000000
-0.164149 0.396292 3.502141 0.290292 -0.956938 -0.000000
-0.083683 0.420702 3.502142 0.290292 -0.956938 -0.000000
-0.083684 0.420702 3.636576 0.290292 -0.956938 -0.000000
-0.083684 0.420702 3.636576 0.098019 -0.995185 -0.000001
-0.083683 0.420702 3.502142 0.098019 -0.995185 -0.000001
0.000000 0.428944 3.502142 0.098019 -0.995185 -0.000001
0.000000 0.428944 3.636576 0.098019 -0.995185 -0.000001
0.000000 0.428944 3.636576 -0.098019 -0.995184 -0.000001
0.000000 0.428944 3.502142 -0.098019 -0.995184 -0.000001
0.083683 0.420702 3.502142 -0.098019 -0.995184 -0.000001
0.083683 0.420702 3.636576 -0.098019 -0.995184 -0.000001
0.083683 0.420702 3.636576 -0.290286 -0.956940 -0.000003
0.083683 0.420702 3.502142 -0.290286 -0.956940 -0.000003
0.164150 0.396292 3.502142 -0.290286 -0.956940 -0.000003
0.164149 0.396292 3.636576 -0.290286 -0.956940 -0.000003
0.164149 0.396292 3.636576 -0.471393 -0.881923 -0.000002
0.164150 0.396292 3.502142 -0.471393 -0.881923 -0.000002
0.238308 0.356654 3.502142 -0.471393 -0.881923 -0.000002
0.238308 0.356654 3.636576 -0.471393 -0.881923 -0.000002
0.238308 0.356654 3.636576 -0.634397 -0.773008 0.000000
0.238308 0.356654 3.502142 -0.634397 -0.773008 0.000000
0.303309 0.303308 3.502142 -0.634397 -0.773008 0.000000
0.303309 0.303308 3.636577 -0.634397 -0.773008 0.000000
0.303309 0.303308 3.636577 -0.773011 -0.634392 -0.000002
0.303309 0.303308 3.502142 -0.773011 -0.634392 -0.000002
0.356653 0.238310 3.502142 -0.773011 -0.634392 -0.000002
0.356652 0.238309 3.636577 -0.773011 -0.634392 -0.000002
0.356652 0.238309 3.636577 -0.881914 -0.471411 -0.000002
0.356653 0.238310 3.502142 -0.881914 -0.471411 -0.000002
0.396295 0.164147 3.502144 -0.881914 -0.471411 -0.000002
0.396295 0.164147 3.636575 -0.881914 -0.471411 -0.000002
0.396295 0.164147 3.636575 -0.956950 -0.290251 -0.000000
0.396295 0.164147 3.502144 -0.956950 -0.290251 -0.000000
0.420701 0.083680 3.502140 -0.956950 -0.290251 -0.000000
0.420701 0.083680 3.636578 -0.956950 -0.290251 -0.000000
0.420701 0.083680 3.636578 -0.995182 -0.098041 -0.000002
0.420701 0.083680 3.502140 -0.995182 -0.098041 -0.000002
0.428945 0.000000 3.502143 -0.995182 -0.098041 -0.000002
0.428945 0.000000 3.636575 -0.995182 -0.098041 -0.000002
0.428945 0.000000 3.636575 -0.995183 0.098036 -0.000002
0.428945 0.000000 3.502143 -0.995183 0.098036 -0.000002
0.420701 -0.083684 3.502141 -0.995183 0.098036 -0.000002
0.420701 -0.083684 3.636577 -0.995183 0.098036 -0.000002
0.420701 -0.083684 3.636577 -0.956944 0.290271 -0.000001
0.420701 -0.083684 3.502141 -0.956944 0.290271 -0.000001
0.396293 -0.164151 3.502143 -0.956944 0.290271 -0.000001
0.396293 -0.164151 3.636575 -0.956944 0.290271 -0.000001
0.396293 -0.164151 3.636575 -0.881914 0.471410 -0.000002
0.396293 -0.164151 3.502143 -0.881914 0.471410 -0.000002
0.356654 -0.238308 3.502141 -0.881914 0.471410 -0.000002
0.356653 -0.238309 3.636577 -0.881914 0.471410 -0.000002
0.356653 -0.238309 3.636577 -0.773017 0.634385 0.000001
0.356654 -0.238308 3.502141 -0.773017 0.634385 0.000001
0.303311 -0.303308 3.502142 -0.773017 0.634385 0.000001
0.303311 -0.303308 3.636576 -0.773017 0.634385 0.000001
0.303311 -0.303308 3.636576 -0.634397 0.773008 -0.000001
0.303311 -0.303308 3.502142 -0.634397 0.773008 -0.000001
0.238308 -0.356655 3.502143 -0.634397 0.773008 -0.000001
0.238307 -0.356655 3.636576 -0.634397 0.773008 -0.000001
0.238307 -0.356655 3.636576 -0.471384 0.881928 -0.000000
0.238308 -0.356655 3.502143 -0.471384 0.881928 -0.000000
0.164147 -0.396293 3.502141 -0.471384 0.881928 -0.000000
0.164147 -0.396294 3.636576 -0.471384 0.881928 -0.000000
0.083683 0.420702 3.502142 -0.000000 0.000000 1.000000
0.000000 0.428944 3.502142 -0.000000 0.000000 1.000000
-0.083683 0.420702 3.502142 -0.000000 0.000000 1.000000
0.083683 0.420702 3.502142 0.000000 -0.000029 1.000000
-0.083683 0.420702 3.502142 0.000000 -0.000029 1.000000
-0.164149 0.396292 3.502141 0.000000 -0.000029 1.000000
0.164150 0.396292 3.502142 -0.000002 -0.000007 1.000000
0.083683 0.420702 3.502142 -0.000002 -0.000007 1.000000
-0.164149 0.396292 3.502141 -0.000002 -0.000007 1.000000
0.238308 0.356654 3.502142 -0.000002 0.000002 1.000000
0.164150 0.396292 3.502142 -0.000002 0.000002 1.000000
-0.164149 0.396292 3.502141 -0.000002 0.000002 1.000000
0.238308 0.356654 3.502142 0.000001 0.000034 1.000000
-0.164149 0.396292 3.502141 0.000001 0.000034 1.000000
-0.238308 0.356654 3.502143 0.000001 0.000034 1.000000
0.238308 0.356654 3.502142 0.000001 -0.000037 1.000000
-0.238308 0.356654 3.502143 0.000001 -0.000037 1.000000
-0.303308 0.303310 3.502141 0.000001 -0.000037 1.000000
0.303309 0.303308 3.502142 -0.000002 -0.000007 1.000000
0.238308 0.356654 3.502142 -0.000002 -0.000007 1.000000
-0.303308 0.303310 3.502141 -0.000002 -0.000007 1.000000
0.303309 0.303308 3.502142 -0.000002 0.000046 1.000000
-0.303308 0.303310 3.502141 -0.000002 0.000046 1.000000
-0.356655 0.238309 3.502144 -0.000002 0.000046 1.000000
0.356653 0.238310 3.502142 0.000002 0.000002 1.000000
0.303309 0.303308 3.502142 0.000002 0.000002 1.000000
-0.356655 0.238309 3.502144 0.000002 0.000002 1.000000
0.396295 0.164147 3.502144 0.000002 0.000024 1.000000
0.356653 0.238310 3.502142 0.000002 0.000024 1.000000
-0.356655 0.238309 3.502144 0.000002 0.000024 1.000000
0.396295 0.164147 3.502144 -0.000003 -0.000034 1.000000
-0.356655 0.238309 3.502144 -0.000003 -0.000034 1.000000
-0.396293 0.164147 3.502141 -0.000003 -0.000034 1.000000
0.420701 0.083680 3.502140 -0.000003 -0.000045 1.000000
0.396295 0.164147 3.502144 -0.000003 -0.000045 1.000000
-0.396293 0.164147 3.502141 -0.000003 -0.000045 1.000000
0.420701 0.083680 3.502140 0.000003 0.000020 1.000000
-0.396293 0.164147 3.502141 0.000003 0.000020 1.000000
-0.420703 0.083680 3.502143 0.000003 0.000020 1.000000
0.420701 0.083680 3.502140 0.000003 -0.000026 1.000000
-0.420703 0.083680 3.502143 0.000003 -0.000026 1.000000
-0.428943 0.000000 3.502141 0.000003 -0.000026 1.000000
0.428945 0.000000 3.502143 -0.000003 0.000040 1.000000
0.420701 0.083680 3.502140 -0.000003 0.000040 1.000000
-0.428943 0.000000 3.502141 -0.000003 0.000040 1.000000
0.420701 -0.083684 3.502141 -0.000003 -0.000022 1.000000
0.428945 0.000000 3.502143 -0.000003 -0.000022 1.000000
-0.428943 0.000000 3.502141 -0.000003 -0.000022 1.000000
0.420701 -0.083684 3.502141 0.000001 0.000023 1.000000
-0.428943 0.000000 3.502141 0.000001 0.000023 1.000000
-0.420703 -0.083680 3.502142 0.000001 0.000023 1.000000
0.420701 -0.083684 3.502141 0.000001 0.000000 1.000000
-0.420703 -0.083680 3.502142 0.000001 0.000000 1.000000
-0.396293 -0.164151 3.502142 0.000001 0.000000 1.000000
0.396293 -0.164151 3.502143 -0.000001 0.000018 1.000000
0.420701 -0.083684 3.502141 -0.000001 0.000018 1.000000
-0.396293 -0.164151 3.502142 -0.000001 0.000018 1.000000
0.356654 -0.238308 3.502141 -0.000001 -0.000019 1.000000
0.396293 -0.164151 3.502143 -0.000001 -0.000019 1.000000
-0.396293 -0.164151 3.502142 -0.000001 -0.000019 1.000000
0.356654 -0.238308 3.502141 -0.000000 -0.000016 1.000000
-0.396293 -0.164151 3.502142 -0.000000 -0.000016 1.000000
-0.356654 -0.238309 3.502141 -0.000000 -0.000016 1.000000
0.303311 -0.303308 3.502142 -0.000000 0.000011 1.000000
0.356654 -0.238308 3.502141 -0.000000 0.000011 1.000000
-0.356654 -0.238309 3.502141 -0.000000 0.000011 1.000000
0.303311 -0.303308 3.502142 -0.000000 0.000015 1.000000
-0.356654 -0.238309 3.502141 -0.000000 0.000015 1.000000
-0.303311 -0.303308 3.502142 -0.000000 0.000015 1.000000
0.238308 -0.356655 3.502143 -0.000000 0.000018 1.000000
0.303311 -0.303308 3.502142 -0.000000 0.000018 1.000000
-0.303311 -0.303308 3.502142 -0.000000 0.000018 1.000000
0.238308 -0.356655 3.502143 -0.000001 0.000013 1.000000
-0.303311 -0.303308 3.502142 -0.000001 0.000013 1.000000
-0.238307 -0.356656 3.502143 -0.000001 0.000013 1.000000
0.164147 -0.396293 3.502141 -0.000001 -0.000041 1.000000
0.238308 -0.356655 3.502143 -0.000001 -0.000041 1.000000
-0.238307 -0.356656 3.502143 -0.000001 -0.000041 1.000000
0.164147 -0.396293 3.502141 -0.000001 -0.000051 1.000000
-0.238307 -0.356656 3.502143 -0.000001 -0.000051 1.000000
-0.164149 -0.396292 3.502141 -0.000001 -0.000051 1.000000
-0.083684 -0.420702 3.502142 -0.000001 0.000034 1.000000
0.164147 -0.396293 3.502141 -0.000001 0.000034 1.000000
-0.164149 -0.396292 3.502141 -0.000001 0.000034 1.000000
-0.083684 -0.420702 3.502142 0.000001 0.000005 1.000000
0.083683 -0.420702 3.502142 0.000001 0.000005 1.000000
0.164147 -0.396293 3.502141 0.000001 0.000005 1.000000
-0.083684 -0.420702 3.502142 0.000001 0.000072 1.000000
-0.000000 -0.428944 3.502142 0.000001 0.000072 1.000000
0.083683 -0.420702 3.502142 0.000001 0.000072 1.000000
-0.000000 -0.428944 3.502142 -0.098022 0.995184 -0.000000
-0.000000 -0.428944 3.636576 -0.098022 0.995184 -0.000000
0.083683 -0.420702 3.636577 -0.098022 0.995184 -0.000000
0.083683 -0.420702 3.502142 -0.098022 0.995184 -0.000000
0.164147 -0.396294 3.636576 -0.290282 0.956941 0.000001
0.164147 -0.396293 3.502141 -0.290282 0.956941 0.000001
0.083683 -0.420702 3.502142 -0.290282 0.956941 0.000001
0.083683 -0.420702 3.636577 -0.290282 0.956941 0.000001
-0.083684 0.420702 3.636576 0.000001 -0.000014 -1.000000
0.000000 0.428944 3.636576 0.000001 -0.000014 -1.000000
0.083683 0.420702 3.636576 0.000001 -0.000014 -1.000000
-0.083684 0.420702 3.636576 0.000001 0.000005 -1.000000
0.083683 0.420702 3.636576 0.000001 0.000005 -1.000000
0.164149 0.396292 3.636576 0.000001 0.000005 -1.000000
-0.164150 0.396292 3.636577 -0.000001 -0.000025 -1.000000
-0.083684 0.420702 3.636576 -0.000001 -0.000025 -1.000000
0.164149 0.396292 3.636576 -0.000001 -0.000025 -1.000000
-0.164150 0.396292 3.636577 -0.000001 0.000009 -1.000000
0.164149 0.396292 3.636576 -0.000001 0.000009 -1.000000
0.238308 0.356654 3.636576 -0.000001 0.000009 -1.000000
-0.238309 0.356654 3.636575 0.000001 0.000034 -1.000000
-0.164150 0.396292 3.636577 0.000001 0.000034 -1.000000
0.238308 0.356654 3.636576 0.000001 0.000034 -1.000000
-0.303308 0.303309 3.636577 0.000001 -0.000033 -1.000000
-0.238309 0.356654 3.636575 0.000001 -0.000033 -1.000000
0.238308 0.356654 3.636576 0.000001 -0.000033 -1.000000
-0.303308 0.303309 3.636577 -0.000001 -0.000014 -1.000000
0.238308 0.356654 3.636576 -0.000001 -0.000014 -1.000000
0.303309 0.303308 3.636577 -0.000001 -0.000014 -1.000000
-0.356655 0.238308 3.636575 -0.000001 0.000034 -1.000000
-0.303308 0.303309 3.636577 -0.000001 0.000034 -1.000000
0.303309 0.303308 3.636577 -0.000001 0.000034 -1.000000
-0.356655 0.238308 3.636575 0.000002 0.000002 -1.000000
0.303309 0.303308 3.636577 0.000002 0.000002 -1.000000
0.356652 0.238309 3.636577 0.000002 0.000002 -1.000000
-0.356655 0.238308 3.636575 0.000002 0.000030 -1.000000
0.356652 0.238309 3.636577 0.000002 0.000030 -1.000000
0.396295 0.164147 3.636575 0.000002 0.000030 -1.000000
-0.396294 0.164147 3.636577 -0.000003 -0.000021 -1.000000
-0.356655 0.238308 3.636575 -0.000003 -0.000021 -1.000000
0.396295 0.164147 3.636575 -0.000003 -0.000021 -1.000000
-0.396294 0.164147 3.636577 -0.000003 -0.000045 -1.000000
0.396295 0.164147 3.636575 -0.000003 -0.000045 -1.000000
0.420701 0.083680 3.636578 -0.000003 -0.000045 -1.000000
-0.420703 0.083680 3.636576 0.000003 0.000011 -1.000000
-0.396294 0.164147 3.636577 0.000003 0.000011 -1.000000
0.420701 0.083680 3.636578 0.000003 0.000011 -1.000000
-0.428944 -0.000000 3.636578 0.000003 -0.000023 -1.000000
-0.420703 0.083680 3.636576 0.000003 -0.000023 -1.000000
0.420701 0.083680 3.636578 0.000003 -0.000023 -1.000000
-0.428944 -0.000000 3.636578 -0.000003 0.000034 -1.000000
0.420701 0.083680 3.636578 -0.000003 0.000034 -1.000000
0.428945 0.000000 3.636575 -0.000003 0.000034 -1.000000
-0.428944 -0.000000 3.636578 -0.000003 -0.000023 -1.000000
0.428945 0.000000 3.636575 -0.000003 -0.000023 -1.000000
0.420701 -0.083684 3.636577 -0.000003 -0.000023 -1.000000
-0.420703 -0.083681 3.636576 0.000002 0.000023 -1.000000
-0.428944 -0.000000 3.636578 0.000002 0.000023 -1.000000
0.420701 -0.083684 3.636577 0.000002 0.000023 -1.000000
-0.396293 -0.164152 3.636576 0.000002 0.000001 -1.000000
-0.420703 -0.083681 3.636576 0.000002 0.000001 -1.000000
0.420701 -0.083684 3.636577 0.000002 0.000001 -1.000000
-0.396293 -0.164152 3.636576 -0.000000 0.000021 -1.000000
0.420701 -0.083684 3.636577 -0.000000 0.000021 -1.000000
0.396293 -0.164151 3.636575 -0.000000 0.000021 -1.000000
-0.396293 -0.164152 3.636576 -0.000000 -0.000022 -1.000000
0.396293 -0.164151 3.636575 -0.000000 -0.000022 -1.000000
0.356653 -0.238309 3.636577 -0.000000 -0.000022 -1.000000
-0.356654 -0.238309 3.636577 -0.000000 -0.000019 -1.000000
-0.396293 -0.164152 3.636576 -0.000000 -0.000019 -1.000000
0.356653 -0.238309 3.636577 -0.000000 -0.000019 -1.000000
-0.303311 -0.303308 3.636576 0.000000 0.000018 -1.000000
-0.356654 -0.238309 3.636577 0.000000 0.000018 -1.000000
0.356653 -0.238309 3.636577 0.000000 0.000018 -1.000000
0.303311 -0.303308 3.636576 0.000000 0.000018 -1.000000
-0.303311 -0.303308 3.636576 0.000000 0.000004 -1.000000
0.303311 -0.303308 3.636576 0.000000 0.000004 -1.000000
0.238307 -0.356655 3.636576 0.000000 0.000004 -1.000000
-0.238307 -0.356656 3.636575 0.000001 0.000010 -1.000000
-0.303311 -0.303308 3.636576 0.000001 0.000010 -1.000000
0.238307 -0.356655 3.636576 0.000001 0.000010 -1.000000
-0.238307 -0.356656 3.636575 0.000001 -0.000019 -1.000000
0.238307 -0.356655 3.636576 0.000001 -0.000019 -1.000000
0.164147 -0.396294 3.636576 0.000001 -0.000019 -1.000000
-0.164149 -0.396292 3.636577 -0.000002 -0.000046 -1.000000
-0.238307 -0.356656 3.636575 -0.000002 -0.000046 -1.000000
0.164147 -0.396294 3.636576 -0.000002 -0.000046 -1.000000
-0.083685 -0.420702 3.636576 -0.000002 0.000042 -1.000000
-0.164149 -0.396292 3.636577 -0.000002 0.000042 -1.000000
0.164147 -0.396294 3.636576 -0.000002 0.000042 -1.000000
-0.083685 -0.420702 3.636576 0.000004 -0.000024 -1.000000
0.164147 -0.396294 3.636576 0.000004 -0.000024 -1.000000
0.083683 -0.420702 3.636577 0.000004 -0.000024 -1.000000
-0.000000 -0.428944 3.636576 0.000004 0.000014 -1.000000
-0.083685 -0.420702 3.636576 0.000004 0.000014 -1.000000
0.083683 -0.420702 3.636577 0.000004 0.000014 -1.000000
4 0 1 2 3
4 4 5 6 7
4 8 9 10 11
4 12 13 14 15
4 16 17 18 19
4 20 21 22 23
4 24 25 26 27
4 28 29 30 31
4 32 33 34 35
4 36 37 38 39
4 40 41 42 43
4 44 45 46 47
4 48 49 50 51
4 52 53 54 55
4 56 57 58 59
4 60 61 62 63
4 64 65 66 67
4 68 69 70 71
4 72 73 74 75
4 76 77 78 79
4 80 81 82 83
4 84 85 86 87
4 88 89 90 91
4 92 93 94 95
4 96 97 98 99
4 100 101 102 103
4 104 105 106 107
4 108 109 110 111
4 112 113 114 115
4 116 117 118 119
3 120 121 122
3 123 124 125
3 126 127 128
3 129 130 131
3 132 133 134
3 135 136 137
3 138 139 140
3 141 142 143
3 144 145 146
3 147 148 149
3 150 151 152
3 153 154 155
3 156 157 158
3 159 160 161
3 162 163 164
3 165 166 167
3 168 169 170
3 171 172 173
3 174 175 176
3 177 178 179
3 180 181 182
3 183 184 185
3 186 187 188
3 189 190 191
3 192 193 194
3 195 196 197
3 198 199 200
3 201 202 203
3 204 205 206
3 207 208 209
4 210 211 212 213
4 214 215 216 217
3 218 219 220
3 221 222 223
3 224 225 226
3 227 228 229
3 230 231 232
3 233 234 235
3 236 237 238
3 239 240 241
3 242 243 244
3 245 246 247
3 248 249 250
3 251 252 253
3 254 255 256
3 257 258 259
3 260 261 262
3 263 264 265
3 266 267 268
3 269 270 271
3 272 273 274
3 275 276 277
3 278 279 280
3 281 282 283
3 281 283 284
3 285 286 287
3 288 289 290
3 291 292 293
3 294 295 296
3 297 298 299
3 300 301 302
3 303 304 305
